HIERARCHY
ROOT Hips
{
	OFFSET 0.000000 0.000000 0.000000
	CHANNELS 6 Xposition Yposition Zposition Zrotation Yrotation Xrotation 
	JOINT LowerBack
	{
		OFFSET 0.000000 0.000000 0.000000
		CHANNELS 3 Zrotation Yrotation Xrotation
		JOINT Spine
		{
			OFFSET 0.028270 2.035590 -0.193380
			CHANNELS 3 Zrotation Yrotation Xrotation
			JOINT Spine1
			{
				OFFSET 0.056720 2.048850 -0.042750
				CHANNELS 3 Zrotation Yrotation Xrotation
				JOINT Neck
				{
					OFFSET 0.000000 0.000000 0.000000
					CHANNELS 3 Zrotation Yrotation Xrotation
					JOINT Neck1
					{
						OFFSET -0.054170 1.746240 0.172020
						CHANNELS 3 Zrotation Yrotation Xrotation
						JOINT Head
						{
							OFFSET 0.104070 1.761360 -0.123970
							CHANNELS 3 Zrotation Yrotation Xrotation
							End Site
							{
								OFFSET 0.000000 0.000000 0.000000
							}
						}
					}
				}
				JOINT LeftShoulder
				{
					OFFSET 0.000000 0.000000 0.000000
					CHANNELS 3 Zrotation Yrotation Xrotation
					JOINT LeftArm
					{
						OFFSET 3.362410 1.200890 -0.311210
						CHANNELS 3 Zrotation Yrotation Xrotation
						JOINT LeftForeArm
						{
							OFFSET 4.983000 -0.000000 -0.000000
							CHANNELS 3 Zrotation Yrotation Xrotation
							JOINT LeftHand
							{
								OFFSET 3.483560 -0.000000 -0.000000
								CHANNELS 3 Zrotation Yrotation Xrotation
								JOINT LeftFingerBase
								{
									OFFSET 0.000000 0.000000 0.000000
									CHANNELS 3 Zrotation Yrotation Xrotation
									JOINT LeftHandIndex1
									{
										OFFSET 0.715260 -0.000000 -0.000000
										CHANNELS 3 Zrotation Yrotation Xrotation
										End Site
										{
											OFFSET 0.000000 0.000000 0.000000
										}
									}
								}
								JOINT LThumb
								{
									OFFSET 0.000000 0.000000 0.000000
									CHANNELS 3 Zrotation Yrotation Xrotation
									End Site
									{
										OFFSET 0.000000 0.000000 0.000000
									}
								}
							}
						}
					}
				}
				JOINT RightShoulder
				{
					OFFSET 0.000000 0.000000 0.000000
					CHANNELS 3 Zrotation Yrotation Xrotation
					JOINT RightArm
					{
						OFFSET -3.136600 1.374050 -0.404650
						CHANNELS 3 Zrotation Yrotation Xrotation
						JOINT RightForeArm
						{
							OFFSET -5.241900 -0.000000 -0.000000
							CHANNELS 3 Zrotation Yrotation Xrotation
							JOINT RightHand
							{
								OFFSET -3.444170 -0.000000 -0.000000
								CHANNELS 3 Zrotation Yrotation Xrotation
								JOINT RightFingerBase
								{
									OFFSET 0.000000 0.000000 0.000000
									CHANNELS 3 Zrotation Yrotation Xrotation
									JOINT RightHandIndex1
									{
										OFFSET -0.622530 -0.000000 -0.000000
										CHANNELS 3 Zrotation Yrotation Xrotation
										End Site
										{
											OFFSET 0.000000 0.000000 0.000000
										}
									}
								}
								JOINT RThumb
								{
									OFFSET 0.000000 0.000000 0.000000
									CHANNELS 3 Zrotation Yrotation Xrotation
									End Site
									{
										OFFSET 0.000000 0.000000 0.000000
									}
								}
							}
						}
					}
				}
			}
		}
	}
}
}
MOTION
Frames: 13
Frame Time: 0.008333
2.460005 16.933890 0.322005 44.904170 -88.224926 -43.499970 -2.140857 -5.245094 -4.921244 -0.651487 -5.230190 -3.190151 -4.693778 -5.283591 2.038895 11.394759 -26.150296 -8.870467 -1.653019 -0.119618 -0.219833 0.000000 0.000000 0.000000 13.247465 7.871774 -1.364060 -42.361725 15.207588 -20.156335 -179.918098 -67.391918 179.992801 0.213017 -2.936369 -0.003621 0.098012 0.521425 -0.000000 0.000000 0.000000 0.000000 0.000000 0.000000 0.000000 8.881619 -20.987162 -2.834183 53.819831 -4.837446 1.486253 179.487500 77.628781 179.965442 -9.615419 14.948809 -1.336600 0.195258 -0.554605 0.000000 0.000000 0.000000 0.000000 0.000000 0.000000 0.000000 
2.440067 16.931841 0.315948 35.273209 -87.618384 -33.923200 -2.395079 -5.161624 -5.006690 -0.718421 -5.130296 -3.204132 -4.727447 -5.183253 2.035831 11.375110 -26.228231 -8.912904 -1.674871 -0.120782 -0.231082 0.000000 0.000000 0.000000 13.176304 7.941235 -1.389345 -42.242671 15.136977 -19.953647 -179.923528 -67.228768 179.993113 0.139816 -2.981218 -0.001362 0.101705 0.521979 -0.000000 0.000000 0.000000 0.000000 0.000000 0.000000 0.000000 9.051792 -21.018126 -2.803875 53.979023 -4.849825 1.627095 179.502772 78.402811 179.966291 -9.771909 14.950106 -1.357940 0.199091 -0.547375 0.000000 0.000000 0.000000 0.000000 0.000000 0.000000 0.000000 
2.418773 16.931229 0.310230 28.384058 -86.807537 -27.084877 -2.695377 -5.113048 -5.099484 -0.788975 -5.062266 -3.216275 -4.757943 -5.115857 2.035858 11.360913 -26.316351 -8.957519 -1.695434 -0.121807 -0.243019 0.000000 0.000000 0.000000 13.119115 7.986982 -1.414687 -42.104469 15.048081 -19.739140 -179.929284 -67.050574 179.993583 0.041782 -3.031341 0.001792 0.106258 0.522762 -0.000000 0.000000 0.000000 0.000000 0.000000 0.000000 0.000000 9.224584 -21.080059 -2.775547 54.131013 -4.768813 1.762173 179.520148 79.201484 179.967119 -9.914909 14.912396 -1.373886 0.202523 -0.539626 0.000000 0.000000 0.000000 0.000000 0.000000 0.000000 0.000000 
2.396457 16.932026 0.304655 23.423165 -85.855606 -22.178073 -3.008816 -5.087689 -5.192582 -0.860142 -5.016399 -3.226427 -4.789463 -5.070844 2.037859 11.354122 -26.402879 -9.003994 -1.715967 -0.122810 -0.255619 0.000000 0.000000 0.000000 13.075146 8.021465 -1.438533 -41.940098 14.945025 -19.520377 -179.935499 -66.859110 179.994184 -0.075953 -3.080289 0.005643 0.111506 0.523622 -0.000000 0.000000 0.000000 0.000000 0.000000 0.000000 0.000000 9.405116 -21.153984 -2.748458 54.271890 -4.594181 1.885665 179.539370 80.020465 179.967942 -10.038910 14.842212 -1.383941 0.205464 -0.531516 0.000000 0.000000 0.000000 0.000000 0.000000 0.000000 0.000000 
2.372704 16.934204 0.299501 19.701492 -84.800138 -18.507113 -3.320620 -5.073421 -5.293817 -0.930883 -4.981540 -3.236952 -4.823191 -5.036760 2.041953 11.356432 -26.493522 -9.053698 -1.736436 -0.123780 -0.269177 0.000000 0.000000 0.000000 13.047664 8.044369 -1.462410 -41.754878 14.829230 -19.297801 -179.942104 -66.661710 179.994906 -0.215218 -3.137885 0.010288 0.117521 0.524736 -0.000000 0.000000 0.000000 0.000000 0.000000 0.000000 0.000000 9.596092 -21.239515 -2.720315 54.388751 -4.331446 1.994741 179.559717 80.849165 179.968775 -10.141743 14.741823 -1.388201 0.207979 -0.523179 0.000000 0.000000 0.000000 0.000000 0.000000 0.000000 0.000000 
2.347776 16.937703 0.294669 16.868750 -83.672863 -15.725702 -3.629972 -5.064893 -5.398801 -1.002475 -4.952406 -3.247634 -4.861364 -5.008151 2.046521 11.367870 -26.571234 -9.105142 -1.758102 -0.124840 -0.283324 0.000000 0.000000 0.000000 13.034005 8.067034 -1.483785 -41.540237 14.704257 -19.078379 -179.948879 -66.458605 179.995698 -0.365310 -3.197683 0.015531 0.123905 0.525951 -0.000000 0.000000 0.000000 0.000000 0.000000 0.000000 0.000000 9.799609 -21.314633 -2.691849 54.477284 -3.992224 2.086762 179.581289 81.676888 179.969570 -10.231320 14.625536 -1.388967 0.210147 -0.514919 0.000000 0.000000 0.000000 0.000000 0.000000 0.000000 0.000000 
2.321251 16.942525 0.290400 14.629345 -82.484207 -13.531262 -3.936420 -5.056178 -5.514954 -1.075307 -4.923169 -3.260477 -4.903956 -4.979240 2.050786 11.388732 -26.641818 -9.158926 -1.780721 -0.125972 -0.298141 0.000000 0.000000 0.000000 13.037885 8.082284 -1.503870 -41.301832 14.573341 -18.862026 -179.955793 -66.255214 179.996518 -0.524471 -3.268616 0.021273 0.130619 0.527433 -0.000000 0.000000 0.000000 0.000000 0.000000 0.000000 0.000000 10.015182 -21.381886 -2.661731 54.526144 -3.590200 2.163420 179.603505 82.487465 179.970286 -10.318692 14.502910 -1.388635 0.212210 -0.506992 0.000000 0.000000 0.000000 0.000000 0.000000 0.000000 0.000000 
2.293321 16.948595 0.286653 12.845872 -81.252452 -11.787416 -4.241911 -5.046500 -5.640299 -1.150119 -4.893024 -3.275551 -4.951932 -4.949257 2.053046 11.415935 -26.686753 -9.213229 -1.804988 -0.127258 -0.313145 0.000000 0.000000 0.000000 13.053236 8.102095 -1.519467 -41.030237 14.439330 -18.654704 -179.962424 -66.049879 179.997295 -0.678738 -3.341868 0.027117 0.137126 0.528997 -0.000000 0.000000 0.000000 0.000000 0.000000 0.000000 0.000000 10.238689 -21.419772 -2.632005 54.533659 -3.140972 2.227659 179.626448 83.267001 179.970832 -10.420979 14.390723 -1.391103 0.214332 -0.499739 0.000000 0.000000 0.000000 0.000000 0.000000 0.000000 0.000000 
2.263694 16.955880 0.283662 11.379055 -79.977137 -10.350351 -4.547815 -5.032725 -5.780509 -1.227164 -4.858769 -3.294395 -5.004446 -4.915102 2.052439 11.448052 -26.715325 -9.268512 -1.830031 -0.128628 -0.328402 0.000000 0.000000 0.000000 13.083327 8.116148 -1.532262 -40.732743 14.304981 -18.455230 -179.969029 -65.844458 179.997998 -0.826516 -3.425172 0.032964 0.143424 0.530811 -0.000000 0.000000 0.000000 0.000000 0.000000 0.000000 0.000000 10.465070 -21.436179 -2.601835 54.493074 -2.656376 2.285273 179.649422 83.998877 179.971158 -10.553295 14.300321 -1.399569 0.216786 -0.493432 0.000000 0.000000 0.000000 0.000000 0.000000 0.000000 0.000000 
2.232595 16.964348 0.281413 10.172841 -78.672669 -9.162193 -4.854332 -5.015581 -5.935457 -1.306361 -4.821231 -3.317142 -5.061547 -4.877686 2.048427 11.479643 -26.711209 -9.323369 -1.855726 -0.130088 -0.343544 0.000000 0.000000 0.000000 13.118418 8.140382 -1.539105 -40.398600 14.168074 -18.267172 -179.975095 -65.635867 179.998573 -0.954354 -3.506666 0.038316 0.148966 0.532635 -0.000000 0.000000 0.000000 0.000000 0.000000 0.000000 0.000000 10.684929 -21.413251 -2.573749 54.407951 -2.145158 2.342460 179.672370 84.672921 179.971180 -10.729445 14.242586 -1.416833 0.219659 -0.488306 0.000000 0.000000 0.000000 0.000000 0.000000 0.000000 0.000000 
2.199731 16.973968 0.280099 9.154416 -77.333155 -8.147009 -5.163260 -4.993045 -6.108727 -1.387841 -4.778210 -3.344628 -5.121650 -4.834897 2.041232 11.508542 -26.689264 -9.378535 -1.880229 -0.131473 -0.358748 0.000000 0.000000 0.000000 13.161310 8.163939 -1.542387 -40.034714 14.026530 -18.086487 -179.981101 -65.426933 179.999016 -1.064901 -3.592603 0.043274 0.153903 0.534614 -0.000000 0.000000 0.000000 0.000000 0.000000 0.000000 0.000000 10.889496 -21.366464 -2.546622 54.277694 -1.610490 2.403082 179.694584 85.278946 179.970890 -10.954419 14.225144 -1.444489 0.223055 -0.484545 0.000000 0.000000 0.000000 0.000000 0.000000 0.000000 0.000000 
2.165632 16.984687 0.279718 8.296996 -75.973481 -7.277803 -5.472725 -4.965802 -6.300319 -1.470916 -4.730609 -3.376700 -5.184086 -4.787712 2.031601 11.528509 -26.636547 -9.433383 -1.902723 -0.132714 -0.373891 0.000000 0.000000 0.000000 13.199552 8.207402 -1.539483 -39.628440 13.868278 -17.913957 -179.986558 -65.213550 179.999310 -1.149172 -3.668656 0.047338 0.157820 0.536475 -0.000000 0.000000 0.000000 0.000000 0.000000 0.000000 0.000000 11.067104 -21.282390 -2.522677 54.109664 -1.049172 2.469957 179.715912 85.815640 179.970068 -11.227152 14.245381 -1.482242 0.226837 -0.482160 0.000000 0.000000 0.000000 0.000000 0.000000 0.000000 0.000000 
2.130061 16.996488 0.280437 7.557550 -74.584779 -6.510170 -5.784817 -4.931863 -6.510497 -1.555807 -4.676157 -3.413228 -5.246974 -4.733885 2.021004 11.537841 -26.570958 -9.488758 -1.920731 -0.133583 -0.389221 0.000000 0.000000 0.000000 13.236851 8.261649 -1.533546 -39.185246 13.680492 -17.741071 -179.992088 -65.001862 179.999507 -1.216396 -3.740768 0.050808 0.161086 0.538376 -0.000000 0.000000 0.000000 0.000000 0.000000 0.000000 0.000000 11.207944 -21.181343 -2.500060 53.908012 -0.457189 2.537272 179.736473 86.282907 179.969311 -11.533829 14.302083 -1.528492 0.230826 -0.481158 -0.000000 0.000000 0.000000 0.000000 0.000000 0.000000 0.000000 
